<svg width="651" height="625" viewBox="0 0 651 625" fill="none" xmlns="http://www.w3.org/2000/svg">
<circle cx="260" cy="137" r="137" fill="#6193E2" fill-opacity="0.24"/>
<g opacity="0.2">
<path opacity="0.2" d="M399.167 465.147C398.79 465.906 398.356 466.629 397.868 467.31C393.556 464.049 389.167 460.84 384.7 457.681L384.989 457.062C386.022 454.907 387.567 453.088 389.467 451.792C391.93 450.155 394.708 449.795 396.993 451.126C399.278 452.457 400.553 455.119 400.688 458.227C400.754 460.638 400.229 463.025 399.167 465.147V465.147Z" fill="#3F3D56"/>
<path opacity="0.2" d="M405.18 452.953C407.895 447.416 406.923 441.111 403.01 438.871C399.096 436.631 393.723 439.304 391.008 444.842C388.293 450.379 389.265 456.684 393.179 458.923C397.093 461.163 402.466 458.49 405.18 452.953Z" fill="#3F3D56"/>
<path opacity="0.2" d="M411.189 440.7C413.903 435.162 412.931 428.858 409.018 426.618C405.104 424.378 399.731 427.051 397.016 432.589C394.302 438.126 395.273 444.431 399.187 446.67C403.101 448.91 408.474 446.237 411.189 440.7Z" fill="#3F3D56"/>
<path opacity="0.2" d="M417.197 428.453C419.912 422.916 418.94 416.612 415.026 414.372C411.112 412.132 405.739 414.805 403.024 420.342C400.31 425.88 401.282 432.184 405.195 434.424C409.109 436.664 414.482 433.991 417.197 428.453Z" fill="#3F3D56"/>
<path opacity="0.2" d="M423.199 416.2C425.913 410.663 424.942 404.358 421.028 402.119C417.114 399.879 411.741 402.552 409.026 408.089C406.312 413.627 407.284 419.931 411.197 422.171C415.111 424.411 420.484 421.738 423.199 416.2Z" fill="#3F3D56"/>
<path opacity="0.2" d="M430.664 313.094C430.335 311.208 430.13 309.301 430.048 307.384L450.323 314.757L430.103 303.391C430.397 297.744 431.754 292.22 434.093 287.159C436.431 282.098 439.701 277.607 443.702 273.959L463.294 304.569L448.063 270.499C452.534 267.475 457.533 265.479 462.749 264.635C467.965 263.79 473.286 264.115 478.38 265.589C483.475 267.063 488.234 269.655 492.361 273.204C496.488 276.752 499.894 281.18 502.368 286.213C504.842 291.246 506.33 296.775 506.74 302.457C507.149 308.138 506.472 313.849 504.749 319.235C503.026 324.621 500.296 329.566 496.727 333.762C493.158 337.958 488.828 341.315 484.006 343.624C484.508 346.562 484.714 349.549 484.622 352.534L453.828 352.268L484.179 357.672C483.158 364.487 480.579 370.92 476.676 376.387C472.773 381.854 467.67 386.182 461.828 388.981C463.114 396.644 462.378 404.544 459.705 411.777C457.032 419.01 452.528 425.285 446.71 429.883C440.892 434.481 433.994 437.218 426.804 437.78C419.614 438.343 412.423 436.708 406.053 433.063C399.683 429.417 394.39 423.909 390.78 417.167C387.171 410.426 385.39 402.722 385.641 394.939C385.892 387.155 388.166 379.605 392.201 373.151C396.236 366.697 401.871 361.6 408.461 358.444C406.926 349.286 408.284 339.836 412.316 331.612C416.348 323.388 422.82 316.866 430.695 313.094H430.664Z" fill="#6C63FF"/>
<path opacity="0.1" d="M480.176 370.461C476.153 378.694 469.678 385.219 461.797 388.981C463.083 396.644 462.348 404.544 459.674 411.777C457.001 419.01 452.498 425.285 446.679 429.883C440.861 434.481 433.963 437.218 426.773 437.78C419.584 438.343 412.392 436.708 406.022 433.063C399.652 429.417 394.359 423.909 390.75 417.167C387.14 410.426 385.359 402.722 385.61 394.939C385.861 387.155 388.135 379.605 392.17 373.151C396.206 366.697 401.84 361.6 408.43 358.444C406.94 349.6 482.196 366.342 480.176 370.461Z" fill="black"/>
</g>
<g opacity="0.2">
<path opacity="0.2" d="M133.637 541.454C134.002 543.06 134.494 544.63 135.109 546.145C144.598 542.219 154.195 538.448 163.902 534.832C163.815 534.407 163.729 533.967 163.631 533.502C162.645 528.951 160.556 524.766 157.576 521.377C153.703 517.065 148.677 514.962 143.842 516.24C139.007 517.518 135.447 521.876 133.84 527.612C132.63 532.124 132.56 536.903 133.637 541.454Z" fill="#3F3D56"/>
<path opacity="0.2" d="M147.605 532.745C155.89 530.56 160.46 519.292 157.813 507.578C155.166 495.864 146.304 488.14 138.02 490.325C129.736 492.51 125.166 503.778 127.813 515.492C130.46 527.206 139.321 534.93 147.605 532.745Z" fill="#3F3D56"/>
<path opacity="0.2" d="M141.741 506.818C150.025 504.633 154.595 493.365 151.948 481.651C149.301 469.937 140.44 462.212 132.156 464.398C123.872 466.583 119.302 477.85 121.949 489.565C124.596 501.279 133.457 509.003 141.741 506.818Z" fill="#3F3D56"/>
<path opacity="0.2" d="M135.885 480.89C144.169 478.705 148.739 467.438 146.092 455.724C143.445 444.009 134.583 436.285 126.299 438.47C118.015 440.655 113.445 451.923 116.092 463.637C118.739 475.351 127.6 483.076 135.885 480.89Z" fill="#3F3D56"/>
<path opacity="0.2" d="M130.028 454.97C138.312 452.784 142.882 441.517 140.235 429.803C137.588 418.089 128.727 410.364 120.443 412.549C112.158 414.734 107.588 426.002 110.235 437.716C112.882 449.43 121.744 457.155 130.028 454.97Z" fill="#3F3D56"/>
<path opacity="0.2" d="M141.274 241.559C142.689 238.202 143.885 234.742 144.852 231.204L103.864 234.605L146.564 223.705C148.483 213.012 148.362 202.008 146.209 191.367C144.056 180.726 139.917 170.671 134.043 161.818L84.1003 208.952L127.373 153.168C120.349 145.246 111.891 138.972 102.526 134.737C93.1602 130.501 83.0876 128.395 72.9357 128.549C62.7837 128.702 52.7698 131.113 43.5178 135.631C34.2658 140.148 25.9739 146.676 19.1586 154.807C12.3434 162.938 7.15082 172.499 3.9044 182.892C0.657982 193.286 -0.57273 204.291 0.288927 215.221C1.15059 226.152 4.08616 236.773 8.91276 246.424C13.7394 256.075 20.3536 264.549 28.3434 271.317C26.137 276.545 24.4623 282.016 23.3485 287.634L80.99 302.859L21.9751 297.456C20.9027 310.704 22.906 324.031 27.8035 336.232C32.701 348.432 40.338 359.12 50.0229 367.327C44.2741 380.975 42.1956 396.094 44.025 410.958C45.8544 425.821 51.5179 439.828 60.3679 451.378C69.218 462.928 80.8974 471.554 94.0709 476.27C107.244 480.986 121.38 481.602 134.863 478.047C148.345 474.492 160.629 466.91 170.311 456.167C179.993 445.425 186.681 431.956 189.612 417.3C192.543 402.644 191.598 387.392 186.885 373.289C182.172 359.186 173.88 346.801 162.959 337.549C169.83 321.239 171.428 302.907 167.495 285.498C163.562 268.089 154.327 252.614 141.274 241.559Z" fill="#020114"/>
<path opacity="0.1" d="M23.8105 323.368C27.7195 340.78 36.9559 356.256 50.0229 367.287C44.2741 380.935 42.1956 396.054 44.025 410.918C45.8544 425.781 51.5179 439.789 60.3679 451.338C69.218 462.888 80.8974 471.514 94.0709 476.23C107.244 480.946 121.38 481.562 134.863 478.007C148.345 474.452 160.629 466.87 170.311 456.127C179.993 445.385 186.681 431.916 189.612 417.26C192.543 402.604 191.598 387.352 186.885 373.249C182.172 359.146 173.88 346.761 162.959 337.509C169.605 321.778 21.8642 314.657 23.8105 323.368Z" fill="black"/>
</g>
<path opacity="0.1" d="M327.656 625C506.234 625 651 603.251 651 576.423C651 549.594 506.234 527.845 327.656 527.845C149.077 527.845 4.31126 549.594 4.31126 576.423C4.31126 603.251 149.077 625 327.656 625Z" fill="#F86D70"/>
<path d="M422.627 103H97.1881C90.4531 103 84.9934 108.899 84.9934 116.176V544.987C84.9934 552.264 90.4531 558.163 97.1881 558.163H422.627C429.361 558.163 434.821 552.264 434.821 544.987V116.176C434.821 108.899 429.361 103 422.627 103Z" fill="#3F3D56"/>
<path opacity="0.1" d="M404.642 148.916H115.172V512.247H404.642V148.916Z" fill="#F86D70"/>
<path d="M259.907 549.512C266.71 549.512 272.225 543.554 272.225 536.203C272.225 528.853 266.71 522.894 259.907 522.894C253.104 522.894 247.589 528.853 247.589 536.203C247.589 543.554 253.104 549.512 259.907 549.512Z" fill="white"/>
<path d="M259.907 135.939C263.139 135.939 265.758 133.109 265.758 129.618C265.758 126.126 263.139 123.296 259.907 123.296C256.676 123.296 254.056 126.126 254.056 129.618C254.056 133.109 256.676 135.939 259.907 135.939Z" fill="white"/>
<path d="M259.907 123.629C261.004 123.629 262.075 123.98 262.987 124.638C263.898 125.296 264.609 126.231 265.028 127.326C265.448 128.42 265.558 129.624 265.344 130.786C265.13 131.948 264.602 133.015 263.827 133.853C263.052 134.69 262.064 135.261 260.989 135.492C259.913 135.723 258.799 135.604 257.786 135.151C256.773 134.698 255.908 133.93 255.298 132.945C254.689 131.96 254.364 130.802 254.364 129.618C254.364 128.029 254.948 126.506 255.988 125.383C257.027 124.26 258.437 123.629 259.907 123.629V123.629ZM259.907 122.963C258.689 122.963 257.498 123.354 256.486 124.085C255.473 124.816 254.683 125.855 254.217 127.071C253.751 128.287 253.629 129.625 253.867 130.916C254.104 132.207 254.691 133.392 255.552 134.323C256.414 135.254 257.511 135.888 258.706 136.144C259.9 136.401 261.139 136.269 262.264 135.766C263.39 135.262 264.351 134.409 265.028 133.315C265.705 132.22 266.066 130.934 266.066 129.618C266.066 127.853 265.417 126.16 264.262 124.912C263.107 123.664 261.541 122.963 259.907 122.963Z" fill="white"/>
<path d="M198.318 409.031V397.006H199.587V402.775L205.228 397.132C205.317 397.05 205.431 397.005 205.548 397.006C205.619 397.005 205.689 397.019 205.754 397.048C205.82 397.077 205.879 397.12 205.929 397.174C205.979 397.227 206.019 397.292 206.045 397.362C206.072 397.433 206.085 397.509 206.084 397.585V408.452C206.085 408.528 206.072 408.604 206.045 408.674C206.019 408.745 205.979 408.809 205.929 408.863C205.879 408.917 205.82 408.959 205.754 408.988C205.689 409.017 205.619 409.031 205.548 409.031C205.425 409.03 205.307 408.981 205.216 408.891L199.587 403.294V409.031H198.318Z" fill="white"/>
<path d="M205.548 397.332C205.579 397.331 205.609 397.337 205.637 397.349C205.665 397.361 205.69 397.379 205.712 397.402C205.733 397.425 205.75 397.453 205.761 397.483C205.772 397.513 205.777 397.546 205.776 397.578V408.452C205.775 408.496 205.762 408.538 205.74 408.575C205.718 408.613 205.687 408.642 205.651 408.662C205.614 408.682 205.573 408.691 205.533 408.688C205.492 408.684 205.453 408.67 205.419 408.645L200.307 403.567L199.771 403.028L200.313 402.496L205.419 397.385C205.456 397.353 205.501 397.335 205.548 397.332V397.332ZM199.279 397.332V408.691H198.626V397.332H199.285H199.279ZM205.555 396.667C205.36 396.667 205.173 396.743 205.025 396.88L199.901 402.003V397.006C199.901 396.916 199.868 396.83 199.809 396.766C199.75 396.702 199.67 396.667 199.587 396.667H198.318C198.235 396.667 198.155 396.702 198.096 396.766C198.037 396.83 198.004 396.916 198.004 397.006V408.984C198.004 409.074 198.037 409.16 198.096 409.224C198.155 409.288 198.235 409.323 198.318 409.323H199.58C199.664 409.323 199.744 409.288 199.803 409.224C199.861 409.16 199.895 409.074 199.895 408.984V404.02L205.019 409.117C205.167 409.252 205.355 409.325 205.548 409.323C205.659 409.325 205.769 409.303 205.872 409.258C205.975 409.213 206.068 409.147 206.147 409.063C206.225 408.978 206.287 408.878 206.33 408.767C206.372 408.657 206.393 408.538 206.392 408.418V397.578C206.393 397.458 206.372 397.339 206.33 397.228C206.288 397.117 206.225 397.016 206.147 396.932C206.068 396.847 205.975 396.78 205.872 396.734C205.77 396.689 205.66 396.666 205.548 396.667H205.555Z" fill="white"/>
<path d="M320.24 409.031V403.261L314.599 408.904C314.507 408.987 314.391 409.031 314.272 409.031C314.134 409.029 314.001 408.97 313.903 408.864C313.849 408.812 313.807 408.748 313.778 408.677C313.75 408.606 313.735 408.529 313.736 408.452V397.578C313.737 397.469 313.766 397.362 313.82 397.27C313.875 397.178 313.952 397.104 314.044 397.057C314.135 397.011 314.237 396.993 314.337 397.006C314.438 397.02 314.533 397.063 314.611 397.132L320.24 402.735V397.006H321.472V409.024L320.24 409.031Z" fill="white"/>
<path d="M314.266 397.332C314.314 397.332 314.36 397.351 314.395 397.385L319.507 402.463L320.043 402.995L319.507 403.534L314.395 408.645C314.359 408.677 314.313 408.693 314.266 408.691C314.236 408.692 314.207 408.687 314.179 408.675C314.152 408.663 314.127 408.646 314.105 408.623C314.084 408.601 314.067 408.574 314.056 408.545C314.044 408.515 314.038 408.484 314.038 408.452V397.578C314.038 397.513 314.062 397.45 314.105 397.404C314.148 397.358 314.206 397.332 314.266 397.332V397.332ZM321.201 397.332V408.691H320.573V397.332H321.189H321.201ZM314.254 396.667C314.143 396.666 314.033 396.689 313.93 396.734C313.827 396.78 313.734 396.847 313.655 396.932C313.577 397.016 313.515 397.117 313.473 397.228C313.43 397.339 313.409 397.458 313.41 397.578V408.452C313.41 408.571 313.432 408.689 313.474 408.799C313.517 408.91 313.579 409.01 313.657 409.094C313.736 409.178 313.829 409.245 313.931 409.29C314.034 409.335 314.143 409.357 314.254 409.357C314.449 409.359 314.64 409.286 314.79 409.15L319.914 404.02V409.017C319.914 409.107 319.947 409.194 320.006 409.257C320.065 409.321 320.145 409.357 320.228 409.357H321.46C321.502 409.357 321.543 409.349 321.582 409.333C321.621 409.316 321.656 409.291 321.686 409.26C321.716 409.228 321.739 409.19 321.756 409.149C321.772 409.107 321.78 409.062 321.78 409.017V397.039C321.78 396.994 321.772 396.949 321.756 396.908C321.739 396.866 321.716 396.828 321.686 396.797C321.656 396.765 321.621 396.74 321.582 396.724C321.543 396.707 321.502 396.699 321.46 396.7H320.228C320.145 396.7 320.065 396.736 320.006 396.799C319.947 396.863 319.914 396.949 319.914 397.039V402.01L314.79 396.913C314.64 396.775 314.45 396.7 314.254 396.7V396.667Z" fill="white"/>
<path d="M262.001 409.25C261.75 409.25 261.509 409.142 261.331 408.95C261.153 408.758 261.053 408.497 261.053 408.225V398.27C261.059 398.003 261.162 397.749 261.339 397.563C261.516 397.376 261.754 397.272 262.001 397.272H264.527C264.651 397.272 264.774 397.299 264.889 397.35C265.005 397.402 265.109 397.477 265.197 397.572C265.285 397.667 265.355 397.78 265.403 397.905C265.45 398.029 265.475 398.162 265.475 398.297V408.232C265.473 408.503 265.373 408.762 265.195 408.952C265.017 409.143 264.777 409.25 264.527 409.25H262.001ZM255.288 409.25C255.037 409.25 254.795 409.142 254.617 408.95C254.44 408.758 254.34 408.497 254.34 408.225V398.27C254.346 398.003 254.449 397.749 254.626 397.563C254.803 397.376 255.041 397.272 255.288 397.272H257.795C257.919 397.272 258.043 397.299 258.158 397.35C258.273 397.402 258.377 397.477 258.465 397.572C258.554 397.667 258.623 397.78 258.671 397.905C258.719 398.029 258.743 398.162 258.743 398.297V408.232C258.743 408.504 258.643 408.764 258.465 408.957C258.288 409.149 258.046 409.257 257.795 409.257L255.288 409.25Z" fill="white"/>
<path d="M264.526 397.578C264.69 397.578 264.846 397.648 264.962 397.773C265.077 397.898 265.142 398.067 265.142 398.244V408.185C265.142 408.362 265.077 408.531 264.962 408.656C264.846 408.781 264.69 408.851 264.526 408.851H262.001C261.838 408.851 261.681 408.781 261.566 408.656C261.45 408.531 261.385 408.362 261.385 408.185V398.264C261.385 398.087 261.45 397.918 261.566 397.793C261.681 397.668 261.838 397.598 262.001 397.598H264.526V397.578ZM257.838 397.598C258.001 397.598 258.158 397.668 258.273 397.793C258.389 397.918 258.454 398.087 258.454 398.264V408.205C258.454 408.382 258.389 408.551 258.273 408.676C258.158 408.801 258.001 408.871 257.838 408.871H255.288C255.125 408.871 254.968 408.801 254.853 408.676C254.737 408.551 254.672 408.382 254.672 408.205V398.264C254.672 398.087 254.737 397.918 254.853 397.793C254.968 397.668 255.125 397.598 255.288 397.598H257.795H257.838ZM264.483 396.933H262.001C261.675 396.933 261.361 397.073 261.13 397.323C260.899 397.572 260.77 397.911 260.77 398.264V408.205C260.77 408.558 260.899 408.897 261.13 409.146C261.361 409.396 261.675 409.536 262.001 409.536H264.526C264.853 409.536 265.166 409.396 265.397 409.146C265.628 408.897 265.758 408.558 265.758 408.205V398.264C265.758 397.911 265.628 397.572 265.397 397.323C265.166 397.073 264.853 396.933 264.526 396.933H264.483ZM257.795 396.933H255.288C254.961 396.933 254.648 397.073 254.417 397.323C254.186 397.572 254.056 397.911 254.056 398.264V408.205C254.056 408.558 254.186 408.897 254.417 409.146C254.648 409.396 254.961 409.536 255.288 409.536H257.795C258.121 409.536 258.435 409.396 258.666 409.146C258.897 408.897 259.027 408.558 259.027 408.205V398.264C259.027 397.911 258.897 397.572 258.666 397.323C258.435 397.073 258.121 396.933 257.795 396.933Z" fill="white"/>
<path opacity="0.5" d="M333.815 380.816H186V382.592H333.815V380.816Z" fill="#6C63FF"/>
<path d="M231.644 385.587C230.932 385.588 230.236 385.362 229.644 384.935C229.052 384.509 228.59 383.903 228.316 383.193C228.043 382.483 227.971 381.701 228.109 380.947C228.247 380.192 228.589 379.499 229.092 378.955C229.595 378.411 230.236 378.04 230.934 377.89C231.632 377.739 232.355 377.816 233.013 378.11C233.67 378.404 234.232 378.902 234.628 379.541C235.023 380.18 235.235 380.932 235.235 381.701C235.235 382.73 234.856 383.718 234.183 384.446C233.51 385.175 232.597 385.585 231.644 385.587V385.587Z" fill="white"/>
<path d="M231.644 378.154C232.295 378.153 232.932 378.36 233.473 378.75C234.015 379.14 234.438 379.695 234.687 380.345C234.937 380.994 235.003 381.709 234.876 382.399C234.749 383.089 234.436 383.723 233.976 384.22C233.515 384.717 232.929 385.056 232.29 385.193C231.652 385.33 230.99 385.259 230.389 384.989C229.787 384.719 229.274 384.263 228.913 383.677C228.552 383.092 228.36 382.404 228.361 381.701C228.361 380.76 228.707 379.858 229.323 379.193C229.938 378.528 230.773 378.154 231.644 378.154V378.154ZM231.644 377.489C230.871 377.487 230.115 377.734 229.472 378.197C228.829 378.66 228.328 379.319 228.031 380.09C227.735 380.861 227.657 381.71 227.808 382.529C227.958 383.348 228.33 384.1 228.877 384.691C229.423 385.281 230.119 385.683 230.877 385.846C231.635 386.008 232.421 385.924 233.135 385.604C233.849 385.284 234.458 384.742 234.887 384.047C235.316 383.352 235.544 382.536 235.543 381.701C235.543 380.584 235.132 379.512 234.401 378.722C233.67 377.932 232.678 377.489 231.644 377.489V377.489Z" fill="white"/>
<path d="M231.336 381.148H186.308V382.26H231.336V381.148Z" fill="white"/>
<path d="M231.028 381.481V381.927H186.616V381.481H231.028ZM231.644 380.816H186V382.592H231.644V380.816Z" fill="white"/>
<path d="M191.543 273.646C207.19 273.646 219.874 259.941 219.874 243.036C219.874 226.13 207.19 212.425 191.543 212.425C175.896 212.425 163.212 226.13 163.212 243.036C163.212 259.941 175.896 273.646 191.543 273.646Z" fill="#B4B3CE"/>
<path d="M328.272 273.646C343.918 273.646 356.603 259.941 356.603 243.036C356.603 226.13 343.918 212.425 328.272 212.425C312.625 212.425 299.94 226.13 299.94 243.036C299.94 259.941 312.625 273.646 328.272 273.646Z" fill="#B4B3CE"/>
<path d="M202.013 233.72C204.394 233.72 206.325 231.634 206.325 229.062C206.325 226.489 204.394 224.403 202.013 224.403C199.632 224.403 197.702 226.489 197.702 229.062C197.702 231.634 199.632 233.72 202.013 233.72Z" fill="white"/>
<path d="M342.437 233.72C344.818 233.72 346.748 231.634 346.748 229.062C346.748 226.489 344.818 224.403 342.437 224.403C340.056 224.403 338.126 226.489 338.126 229.062C338.126 231.634 340.056 233.72 342.437 233.72Z" fill="white"/>
<path d="M334.43 304.922C334.43 310.798 301.067 326.216 259.907 326.216C218.747 326.216 185.384 310.798 185.384 304.922C185.384 299.046 218.747 304.922 259.907 304.922C301.067 304.922 334.43 299.039 334.43 304.922Z" fill="#B4B3CE"/>
<path d="M481.204 207.721H481.099C479.129 207.73 477.192 208.271 475.464 209.293C473.736 210.316 472.271 211.788 471.202 213.577C470.133 211.789 468.668 210.317 466.939 209.295C465.211 208.272 463.275 207.731 461.305 207.721H461.2C458.09 207.742 455.113 209.092 452.921 211.475C450.728 213.859 449.498 217.083 449.498 220.444C449.498 224.61 451.186 230.519 454.481 235.383C460.75 244.646 471.171 252.751 471.171 252.751C471.171 252.751 481.592 244.646 487.862 235.383C491.157 230.519 492.845 224.61 492.845 220.444C492.843 217.095 491.621 213.882 489.442 211.501C487.263 209.119 484.303 207.761 481.204 207.721Z" fill="#F86D70"/>
<path d="M517.086 163.316H517.006C515.495 163.324 514.009 163.74 512.683 164.524C511.357 165.308 510.233 166.436 509.412 167.807C508.591 166.436 507.467 165.308 506.141 164.524C504.815 163.74 503.33 163.324 501.818 163.316H501.738C499.356 163.34 497.08 164.379 495.403 166.207C493.726 168.035 492.784 170.504 492.783 173.078C492.783 176.272 494.083 180.81 496.608 184.537C501.418 191.644 509.412 197.846 509.412 197.846C509.412 197.846 517.419 191.624 522.217 184.537C524.742 180.81 526.035 176.272 526.035 173.078C526.034 170.505 525.093 168.037 523.418 166.21C521.742 164.382 519.467 163.342 517.086 163.316V163.316Z" fill="#F86D70"/>
<path d="M558.924 213.171H558.844C557.333 213.179 555.848 213.594 554.524 214.379C553.199 215.163 552.076 216.292 551.256 217.662C550.434 216.292 549.31 215.164 547.984 214.38C546.659 213.595 545.173 213.18 543.662 213.171H543.582C541.197 213.188 538.915 214.223 537.233 216.051C535.551 217.878 534.605 220.349 534.602 222.926C534.602 226.12 535.896 230.652 538.421 234.385C543.237 241.492 551.231 247.694 551.231 247.694C551.231 247.694 559.238 241.472 564.036 234.385C566.561 230.652 567.854 226.12 567.854 222.926C567.851 220.358 566.912 217.895 565.241 216.069C563.57 214.243 561.3 213.202 558.924 213.171V213.171Z" fill="#F86D70"/>
<path d="M615.173 427.097L615.66 426.738C613.409 427.465 611.074 427.846 608.725 427.869C604.733 427.792 600.794 426.865 597.134 425.141C591.104 422.326 585.931 417.635 581.7 412.198C575.849 404.679 571.426 395.416 563.623 390.391C562.017 389.294 560.221 388.561 558.345 388.235C555.044 387.776 551.798 389.134 548.595 390.125C534.756 394.424 518.367 391.276 508.821 379.611C506.801 377.149 505.125 374.368 502.884 372.118C495.493 364.665 483.692 364.858 474.343 368.997C473.776 369.244 473.216 369.517 472.668 369.809C472.692 369.67 472.723 369.532 472.76 369.397C471.048 370.112 469.534 371.29 468.363 372.817C466.626 375.326 466.626 378.58 467.088 381.541C467.188 382.495 467.425 383.427 467.79 384.303C466.64 385.775 466.009 387.64 466.01 389.566C466.01 389.806 466.01 390.039 466.041 390.272C460.526 391.608 455.534 394.768 451.759 399.314C447.985 403.859 445.616 409.563 444.983 415.632C444.983 415.565 444.983 415.499 444.983 415.439C444.882 416.471 444.831 417.508 444.829 418.546C444.829 418.613 444.829 418.679 444.829 418.746C444.829 418.813 444.829 418.872 444.829 418.939C444.824 422.904 445.565 426.829 447.006 430.476C448.447 434.122 450.558 437.415 453.212 440.153C454.71 444.63 457.522 448.456 461.218 451.047C461.144 451.379 461.071 451.712 460.984 452.051C459.586 457.535 456.322 463.324 448.999 465.893C448.691 466.006 448.383 466.106 448.051 466.205L446.536 466.665L445.92 466.864C430.781 471.609 426.451 475.442 425.078 481.763C423.944 486.967 422.614 496.27 422.066 499.997C420.97 502.738 413.517 521.79 414.109 532.803C414.207 534.699 414.256 536.596 414.226 538.499C414.158 542.352 415.18 548.561 422.744 546.924C427.055 545.992 433.83 543.763 440.506 541.414C440.116 542.705 439.676 543.976 439.188 545.227C438.196 547.762 436.995 550.404 436.373 553.066V553.139L436.299 553.465C436.299 553.531 436.299 553.591 436.299 553.658C436.299 553.724 436.256 553.884 436.232 553.997C436.207 554.11 436.232 554.057 436.232 554.09C436.234 554.132 436.234 554.175 436.232 554.217C436.232 554.363 436.188 554.503 436.17 554.649C436.152 554.796 436.121 555.029 436.102 555.222C436.102 555.341 436.102 555.461 436.102 555.581C436.105 555.639 436.105 555.696 436.102 555.754C436.102 555.754 436.102 555.794 436.102 555.807V555.867C436.102 555.967 436.102 556.073 436.102 556.173C436.102 556.273 436.102 556.293 436.102 556.346C436.102 556.399 436.102 556.526 436.102 556.619C436.105 556.683 436.105 556.748 436.102 556.812C436.102 556.985 436.102 557.158 436.133 557.331C436.133 557.331 436.133 557.378 436.133 557.398C436.133 557.418 436.133 557.617 436.17 557.724C436.207 557.83 436.17 557.897 436.17 557.983C436.17 558.07 436.17 558.063 436.17 558.103L436.225 558.409C436.225 558.482 436.225 558.562 436.269 558.635L436.342 558.948C436.342 559.048 436.392 559.141 436.422 559.241C436.73 560.035 436.95 560.866 437.075 561.716C437.099 562.19 437.052 562.664 436.934 563.12V563.12L436.841 563.48C436.844 563.506 436.844 563.533 436.841 563.56C436.774 563.812 436.693 564.065 436.613 564.318C436.57 564.458 436.527 564.598 436.49 564.737C436.49 564.777 436.49 564.817 436.447 564.864L436.41 564.997L436.373 565.137V565.197L436.281 565.603C436.281 565.642 436.281 565.676 436.281 565.722C436.278 565.773 436.278 565.824 436.281 565.875V565.975C436.278 566.039 436.278 566.104 436.281 566.168V566.168C436.284 566.21 436.284 566.253 436.281 566.295V566.354C436.275 566.472 436.275 566.59 436.281 566.707C436.394 567.791 436.747 568.829 437.309 569.735C437.426 569.955 437.556 570.167 437.673 570.4L411.805 569.941C406.345 569.812 401.03 571.853 396.87 575.677C389.436 582.598 392.3 589.346 398.2 594.862C404.605 600.851 414.595 605.409 418.808 607.159C420.04 607.685 420.791 607.958 420.791 607.958H484.228L485.171 608.191C488.067 608.783 491.012 609.057 493.959 609.009C497.545 609.014 501.127 608.792 504.688 608.344C505.76 608.211 506.844 608.058 507.928 607.931H514.703L515.319 608.058C518.466 608.783 521.755 610.653 524.705 609.262C525.315 608.987 525.838 608.524 526.208 607.931H533.777C547.801 607.931 555.851 602.921 559.774 596.04C562.588 591.109 563.278 585.22 562.527 579.537C560.999 567.978 523.473 567.632 512.177 567.792C512.017 567.632 511.851 567.486 511.685 567.346C510.385 566.241 508.815 565.09 508.648 563.3C508.556 562.229 509.012 561.157 508.858 560.093C508.581 558.243 506.69 557.344 505.218 556.366C500.186 553.039 498.234 545.979 498.726 539.63C498.763 539.224 498.8 538.812 498.85 538.406C498.886 538.086 498.936 537.774 498.979 537.461C498.975 537.406 498.975 537.35 498.979 537.295C498.979 537.295 498.979 537.255 498.979 537.235C504.737 539.223 510.588 540.882 516.507 542.206C538.79 547.263 533.038 535.198 533.038 535.198C533.038 535.198 530.525 518.083 529.084 511.469C527.643 504.854 520.461 487.353 520.461 487.353L520.276 486.894C520.221 484.745 519.445 469.812 508.784 466.931C505.606 466.066 502.182 465.347 498.886 464.429L498.652 464.355C497.55 464.049 496.466 463.69 495.413 463.344C489.574 461.301 484.721 458.187 483.409 451.905C483.341 451.566 483.28 451.24 483.23 450.86C486.996 448.163 489.815 444.18 491.237 439.548C496.269 434.059 499.089 426.644 499.084 418.919C499.087 418.855 499.087 418.79 499.084 418.726C499.084 418.659 499.084 418.593 499.084 418.526C499.085 417.488 499.034 416.451 498.93 415.419V415.612C498.7 413.395 498.238 411.214 497.55 409.11C499.605 411.115 501.921 412.783 504.423 414.061C507.418 415.529 510.676 416.258 513.964 416.197C516.086 416.236 518.202 415.94 520.246 415.319C525.253 413.782 529.737 410.348 534.892 409.57C535.543 409.477 536.199 409.424 536.856 409.41C541.987 409.523 547 412.025 551.595 414.733C557.563 418.208 563.334 422.066 568.877 426.285C574.34 430.444 579.846 435.083 586.411 436.413C587.874 436.703 589.359 436.835 590.846 436.806C594.982 436.764 599.077 435.916 602.936 434.304C607.697 432.443 612.209 429.91 616.356 426.771C615.98 426.871 615.586 426.991 615.173 427.097ZM482.14 391.722C481.752 391.549 481.352 391.383 480.952 391.23C480.985 391.057 481.009 390.884 481.026 390.711C481.401 391.037 481.771 391.376 482.134 391.722H482.14ZM431.686 528.251C431.686 528.251 436.225 514.536 436.25 511.123L439.059 502.412L440.099 504.209C440.007 504.808 439.921 505.407 439.835 506.006C439.748 506.604 439.674 507.123 439.607 507.682C439.533 508.255 439.471 508.82 439.428 509.393C439.428 509.552 439.428 509.712 439.397 509.872C439.397 509.912 439.397 509.958 439.397 509.998V510.411C439.397 510.471 439.397 510.537 439.397 510.597C439.397 510.657 439.397 510.803 439.397 510.903V511.116C439.397 511.276 439.397 511.429 439.397 511.582C439.394 511.637 439.394 511.693 439.397 511.748C439.397 511.821 439.397 511.901 439.397 511.981C439.397 512.201 439.428 512.42 439.447 512.647C439.447 512.647 439.447 512.647 439.447 512.687C439.447 512.726 439.447 512.753 439.447 512.78C439.45 512.817 439.45 512.855 439.447 512.893C439.447 513.126 439.508 513.359 439.551 513.558C439.594 513.758 439.65 514.044 439.705 514.29V514.363C440.247 516.526 441.436 518.429 442.083 520.559C442.138 520.752 442.193 520.951 442.243 521.144L442.298 521.384L442.391 521.796L442.446 522.096L442.52 522.535C442.52 522.595 442.52 522.655 442.52 522.715C442.52 522.928 442.575 523.141 442.6 523.347C442.721 524.569 442.762 525.799 442.723 527.027C442.723 527.406 442.723 527.779 442.686 528.158C437.827 529.03 433.281 529.336 431.686 528.251ZM505.483 502.785C506.61 507.849 513.268 524.358 513.268 524.358C512.036 525.363 507.429 525.144 502.563 524.571C502.656 524.318 502.742 524.072 502.828 523.819L502.964 523.42L503.204 522.755C503.352 522.309 503.506 521.87 503.654 521.424L503.931 520.545C503.931 520.512 503.931 520.472 503.931 520.432C504.023 520.126 504.109 519.82 504.189 519.507C504.226 519.388 504.257 519.261 504.288 519.135V519.095L504.43 518.502C504.43 518.403 504.473 518.31 504.497 518.21L504.608 517.704C504.608 517.631 504.608 517.558 504.651 517.478C504.654 517.425 504.654 517.371 504.651 517.318C504.651 517.232 504.688 517.145 504.701 517.065C504.744 516.859 504.781 516.646 504.811 516.44C504.814 516.378 504.814 516.315 504.811 516.253C504.814 516.216 504.814 516.178 504.811 516.14C504.811 515.994 504.861 515.841 504.879 515.688C504.941 515.244 504.996 514.812 505.045 514.39C505.045 514.304 505.045 514.217 505.045 514.124C505.064 513.996 505.076 513.867 505.082 513.738C505.082 513.618 505.082 513.498 505.082 513.379V513.106C505.082 512.946 505.082 512.786 505.113 512.627C505.144 512.467 505.113 512.414 505.113 512.307C505.116 512.272 505.116 512.236 505.113 512.201V512.201C505.113 511.802 505.113 511.402 505.113 511.003V510.557C505.113 510.417 505.113 510.271 505.113 510.131C505.113 509.945 505.113 509.765 505.113 509.579C505.116 509.561 505.116 509.543 505.113 509.526C505.113 509.399 505.113 509.266 505.113 509.14C505.113 509.14 505.113 509.14 505.113 509.087C505.113 509.033 505.113 508.98 505.113 508.927C505.113 508.607 505.076 508.261 505.052 507.962C505.052 507.855 505.052 507.749 505.052 507.642C504.966 506.651 504.834 505.665 504.657 504.688L505.483 502.785Z" fill="url(#paint0_linear)"/>
<path d="M519.34 488.331L505.07 502.592L504.011 505.58L503.29 507.576L442.994 510.664L439.755 505.114L438.714 503.337L435.862 512.201L421.579 502.592C421.579 502.592 423.359 489.489 424.788 482.935C426.149 476.673 430.448 472.873 445.482 468.175L446.098 467.969L447.601 467.516C447.921 467.423 448.217 467.323 448.543 467.21C455.811 464.662 459.051 458.925 460.436 453.495C461.404 449.52 461.649 445.38 461.157 441.305C461.157 441.305 483.101 433.792 482.387 448.824C482.301 450.359 482.409 451.899 482.707 453.402C484.013 459.624 488.829 462.718 494.625 464.715C495.672 465.079 496.743 465.414 497.839 465.72L498.074 465.786C501.344 466.698 504.744 467.417 507.928 468.268C519.34 471.369 519.34 488.331 519.34 488.331Z" fill="#DB8B8B"/>
<path d="M468.523 374.98C469.792 373.15 471.775 372.065 473.74 371.2C483.027 367.101 494.735 366.908 502.071 374.294C504.282 376.517 505.957 379.279 507.965 381.721C517.443 393.279 533.709 396.394 547.45 392.135C550.628 391.15 553.855 389.806 557.132 390.265C558.993 390.585 560.774 391.312 562.367 392.401C570.115 397.379 574.506 406.555 580.314 414.008C584.508 419.391 589.651 424.036 595.637 426.831C601.624 429.626 608.497 430.451 614.73 428.415C610.615 431.519 606.141 434.025 601.421 435.868C596.407 437.824 590.95 439.015 585.734 437.951C579.211 436.62 573.748 432.035 568.322 427.916C562.821 423.736 557.094 419.916 551.17 416.477C545.818 413.363 539.899 410.488 533.875 411.393C528.757 412.158 524.311 415.565 519.334 417.082C514.345 418.602 509.022 418.185 504.288 415.905C491.557 409.649 485.731 391.203 472.101 387.803C468.615 386.938 467.975 388.269 467.26 383.657C466.798 380.689 466.792 377.475 468.523 374.98Z" fill="#35323E"/>
<path opacity="0.1" d="M606.237 429.879C601.223 431.835 595.767 433.026 590.55 431.962C584.028 430.631 578.565 426.053 573.139 421.927C567.638 417.747 561.91 413.927 555.986 410.488C550.634 407.374 544.715 404.499 538.692 405.404C533.574 406.169 529.127 409.576 524.15 411.1C519.161 412.618 513.837 412.198 509.104 409.916C496.374 403.66 490.547 385.214 476.918 381.821C473.432 380.949 472.791 382.28 472.07 377.668C471.696 375.666 471.73 373.6 472.169 371.613C470.471 372.324 468.97 373.492 467.808 375.006C466.078 377.495 466.084 380.709 466.577 383.657C467.297 388.269 467.932 386.938 471.418 387.803C485.047 391.203 490.874 409.649 503.604 415.905C508.333 418.201 513.657 418.634 518.651 417.129C523.627 415.612 528.074 412.205 533.192 411.439C539.215 410.534 545.134 413.436 550.486 416.523C556.411 419.964 562.141 423.784 567.645 427.962C573.071 432.081 578.534 436.68 585.05 437.997C590.291 439.062 595.724 437.871 600.737 435.914C605.464 434.069 609.945 431.559 614.065 428.448C611.825 429.168 609.503 429.544 607.167 429.566L606.237 429.879Z" fill="black"/>
<path d="M471.356 449.782C486.231 449.782 498.289 436.754 498.289 420.682C498.289 404.611 486.231 391.583 471.356 391.583C456.481 391.583 444.423 404.611 444.423 420.682C444.423 436.754 456.481 449.782 471.356 449.782Z" fill="#35323E"/>
<path opacity="0.1" d="M471.356 443.234C464.71 443.233 458.3 440.577 453.357 435.778C448.413 430.979 445.287 424.375 444.577 417.235C444.476 418.259 444.425 419.287 444.423 420.316C444.369 424.175 445.026 428.007 446.355 431.589C447.685 435.172 449.66 438.432 452.167 441.182C454.673 443.931 457.661 446.115 460.956 447.605C464.251 449.096 467.787 449.863 471.359 449.863C474.931 449.863 478.467 449.096 481.762 447.605C485.057 446.115 488.045 443.931 490.552 441.182C493.058 438.432 495.034 435.172 496.363 431.589C497.692 428.007 498.349 424.175 498.295 420.316C498.294 419.287 498.242 418.259 498.141 417.235C497.432 424.376 494.304 430.981 489.359 435.78C484.415 440.579 478.003 443.234 471.356 443.234Z" fill="black"/>
<path opacity="0.1" d="M482.738 453.402C479.452 455.802 475.581 457.092 471.616 457.108C467.65 457.125 463.769 455.867 460.467 453.495C461.435 449.52 461.68 445.38 461.188 441.305C461.188 441.305 483.132 433.792 482.418 448.824C482.332 450.359 482.439 451.899 482.738 453.402V453.402Z" fill="black"/>
<path d="M471.535 455.951C482.569 455.951 491.514 446.286 491.514 434.364C491.514 422.442 482.569 412.777 471.535 412.777C460.5 412.777 451.555 422.442 451.555 434.364C451.555 446.286 460.5 455.951 471.535 455.951Z" fill="#DB8B8B"/>
<path opacity="0.05" d="M468.751 493.269C469.73 494.395 470.559 495.662 471.214 497.035C472.255 499.245 472.828 501.926 471.898 504.202C471.552 502.786 471.493 501.305 471.725 499.862C471.957 498.418 472.474 497.046 473.241 495.838C474.807 493.439 476.967 491.567 479.474 490.434" fill="black"/>
<path d="M558.523 596.24C554.631 603.054 546.643 608.025 532.724 608.025H420.348C420.348 608.025 419.615 607.752 418.383 607.233C414.201 605.496 404.285 600.984 397.923 595.042C392.072 589.578 389.22 582.897 396.605 576.03C400.739 572.244 406.012 570.225 411.43 570.354L449.245 571.019L508.106 568.291C508.106 568.291 559.478 566.361 561.264 579.85C562.003 585.513 561.32 591.349 558.523 596.24Z" fill="#6193E2" fill-opacity="0.34"/>
<path d="M512.732 572.284C512.116 573.734 510.453 574.08 509.036 574.526C503.21 576.369 499.613 582.511 494.969 586.71C492.628 588.834 489.968 590.511 487.104 591.668C480.601 594.33 473.352 594.084 466.595 592.38C459.839 590.676 452.152 589.239 447.071 584.128C443.007 580.048 439.527 575.339 436.743 570.154C436.181 569.258 435.83 568.228 435.72 567.153C435.714 567.038 435.714 566.922 435.72 566.807C435.714 566.741 435.714 566.674 435.72 566.607C435.714 566.543 435.714 566.479 435.72 566.414C435.72 566.328 435.72 566.241 435.764 566.162C435.778 566.065 435.798 565.969 435.825 565.875C435.825 565.776 435.868 565.682 435.893 565.583C435.917 565.483 435.948 565.396 435.973 565.303C436.096 564.864 436.244 564.438 436.367 563.972C436.41 563.826 436.447 563.679 436.478 563.54C436.596 563.088 436.644 562.618 436.62 562.149C436.491 561.306 436.274 560.483 435.973 559.693C435.973 559.6 435.917 559.5 435.893 559.407C435.868 559.314 435.837 559.188 435.813 559.081C435.77 558.868 435.727 558.655 435.69 558.416C435.653 558.176 435.634 557.983 435.616 557.75C435.586 557.427 435.572 557.103 435.573 556.779C435.573 556.599 435.573 556.419 435.573 556.246C435.566 556.227 435.566 556.206 435.573 556.187C435.573 556.007 435.573 555.834 435.603 555.661C435.64 555.288 435.69 554.909 435.757 554.536C435.757 554.33 435.825 554.13 435.868 553.917C435.893 553.82 435.917 553.713 435.942 553.598C435.939 553.574 435.939 553.549 435.942 553.525C436.558 550.863 437.753 548.274 438.738 545.752C440.963 540.058 442.181 533.964 442.329 527.785C442.368 526.571 442.327 525.354 442.206 524.145C442.206 524.012 442.175 523.886 442.163 523.753C442.15 523.62 442.107 523.327 442.064 523.087C442.021 522.848 441.984 522.622 441.935 522.422C441.885 522.222 441.867 522.129 441.824 521.983C441.781 521.836 441.725 521.597 441.67 521.404C441.054 519.288 439.822 517.411 439.299 515.242C439.237 514.976 439.182 514.71 439.132 514.443C439.089 514.21 439.052 513.984 439.028 513.778C439.028 513.698 439.028 513.618 439.028 513.532C438.991 513.186 438.972 512.866 438.966 512.487C438.966 512.334 438.966 512.187 438.966 512.028C438.966 511.868 438.966 511.682 438.966 511.509C438.966 511.336 438.966 511.036 438.997 510.797C439.028 510.557 438.997 510.477 438.997 510.318C438.997 510.025 439.046 509.739 439.083 509.459C439.12 509.18 439.145 508.887 439.182 508.601C439.249 508.048 439.33 507.489 439.41 506.937C439.49 506.385 439.582 505.746 439.674 505.154C440.106 502.432 440.678 499.717 441.972 497.355C443.869 493.901 447.262 491.233 447.847 487.267C448.005 485.678 447.89 484.072 447.509 482.529C447.435 482.183 447.367 481.863 447.299 481.497C446.398 477.111 445.768 472.665 445.415 468.188L446.03 467.982L447.533 467.53C447.854 467.436 448.149 467.337 448.476 467.223C448.691 471.7 449.237 476.15 450.108 480.532C450.785 483.953 451.678 487.386 453.372 490.381C455.066 493.375 457.634 495.904 460.763 496.802C462.838 497.401 465.037 497.255 467.18 497.055C471.492 496.649 475.772 496.011 480.016 495.152C483.095 494.487 486.218 493.761 488.977 492.131C489.706 491.743 490.357 491.202 490.892 490.541C491.487 489.63 491.896 488.593 492.093 487.5C493.878 480.063 494.707 472.396 494.557 464.715C495.604 465.079 496.675 465.413 497.772 465.72L498.006 465.786C498.006 467.044 497.95 468.295 497.895 469.546C497.864 470.304 497.821 471.063 497.778 471.828C497.778 472.254 497.722 472.687 497.686 473.113C497.686 473.419 497.63 473.732 497.605 474.038C497.605 474.131 497.605 474.224 497.575 474.317C497.538 474.69 497.501 475.062 497.458 475.428C497.402 475.927 497.334 476.427 497.267 476.926L497.174 477.591C497.045 478.549 496.909 479.514 496.799 480.479C496.618 481.912 496.542 483.358 496.571 484.804C496.669 487.959 498.308 491.073 500.057 493.602C502.157 496.643 502.705 500.03 503.549 503.71C503.684 504.315 503.807 504.927 503.912 505.54C504.085 506.511 504.214 507.489 504.3 508.468C504.3 508.654 504.3 508.84 504.343 509.027C504.386 509.213 504.343 509.306 504.343 509.439C504.343 509.572 504.343 509.745 504.343 509.898C504.343 510.051 504.343 510.218 504.343 510.384C504.343 510.55 504.343 510.75 504.343 510.93C504.343 511.442 504.343 511.961 504.343 512.474C504.343 512.653 504.343 512.846 504.343 513.033V513.132C504.343 513.285 504.343 513.438 504.343 513.598C504.343 513.758 504.343 513.991 504.3 514.197C504.257 514.403 504.3 514.437 504.3 514.55L504.263 514.936C504.263 515.129 504.22 515.328 504.196 515.521C504.171 515.714 504.14 515.994 504.109 516.227C504.078 516.46 504.042 516.699 504.005 516.932C503.937 517.371 503.857 517.817 503.764 518.263C503.654 518.815 503.53 519.361 503.389 519.907C503.352 520.073 503.309 520.233 503.266 520.392C503.105 520.991 502.927 521.584 502.73 522.176C502.034 524.259 501.282 526.341 500.574 528.431C500.457 528.777 500.34 529.096 500.229 529.476C500.118 529.855 500.001 530.141 499.897 530.507C499.786 530.86 499.681 531.212 499.57 531.558C499.459 531.905 499.367 532.224 499.268 532.61C499.065 533.329 498.88 534.047 498.708 534.773C498.659 534.986 498.603 535.198 498.56 535.438C498.56 535.531 498.517 535.638 498.498 535.731C498.48 535.824 498.455 535.924 498.437 536.024C498.344 536.476 498.258 536.929 498.178 537.388L498.086 537.96C498.03 538.339 497.981 538.712 497.932 539.085C497.883 539.484 497.846 539.897 497.809 540.302C497.316 546.591 499.256 553.611 504.251 556.885C505.717 557.85 507.589 558.742 507.866 560.572C508.02 561.63 507.564 562.688 507.663 563.753C507.823 565.523 509.381 566.667 510.675 567.745C512.116 568.89 513.348 570.66 512.732 572.284Z" fill="white"/>
<g opacity="0.1">
<path opacity="0.1" d="M497.95 534.16C497.82 535.81 497.86 537.471 498.067 539.111C498.757 533.275 501.024 527.799 502.871 522.209C504.321 517.822 504.853 513.143 504.43 508.508C504.201 511.079 503.678 513.609 502.871 516.04C500.864 521.983 498.412 527.865 497.95 534.16Z" fill="black"/>
<path opacity="0.1" d="M498.104 465.813C498.104 467.07 498.049 468.321 497.993 469.573C497.963 470.331 497.926 471.09 497.876 471.855C497.876 472.281 497.821 472.713 497.784 473.139C497.784 473.445 497.729 473.758 497.704 474.064C497.704 474.157 497.704 474.251 497.673 474.344C497.636 474.716 497.599 475.089 497.556 475.455C497.501 475.954 497.433 476.453 497.365 476.952L497.273 477.618C497.144 478.576 497.008 479.541 496.897 480.506C496.767 479.901 496.69 479.283 496.669 478.662C496.571 475.515 497.193 472.401 497.556 469.266C497.692 468.095 497.796 466.911 497.87 465.726L498.104 465.813Z" fill="black"/>
<path opacity="0.1" d="M441.744 521.417C442.008 522.316 442.188 523.241 442.28 524.179C442.341 523.34 442.384 522.495 442.403 521.657C442.522 519.496 442.299 517.328 441.744 515.248C441.128 513.132 439.896 511.256 439.373 509.093C439.336 508.92 439.293 508.754 439.262 508.587C438.887 510.791 438.925 513.054 439.373 515.242C439.915 517.405 441.103 519.301 441.744 521.417Z" fill="black"/>
<path opacity="0.1" d="M510.792 567.799C510.219 568.025 509.603 568.191 509.036 568.371C503.21 570.214 499.613 576.356 494.969 580.555C492.628 582.681 489.968 584.359 487.104 585.519C480.601 588.141 473.352 587.928 466.595 586.225C459.839 584.521 452.152 583.084 447.071 577.98C443.011 573.896 439.531 569.187 436.743 564.005L436.527 563.593C436.25 564.784 435.69 565.949 435.727 567.173C435.832 568.248 436.181 569.279 436.743 570.174C439.529 575.357 443.009 580.066 447.071 584.148C452.152 589.259 459.839 590.696 466.595 592.4C473.352 594.103 480.601 594.316 487.104 591.688C489.969 590.533 492.629 588.856 494.969 586.73C499.613 582.505 503.21 576.389 509.036 574.546C510.441 574.1 512.116 573.754 512.732 572.304C513.348 570.66 512.116 568.896 510.792 567.799Z" fill="black"/>
<path opacity="0.1" d="M436.657 556.007C436.541 555.176 436.334 554.363 436.041 553.585C435.532 555.492 435.503 557.51 435.954 559.434C436.232 558.309 436.73 557.178 436.657 556.007Z" fill="black"/>
<path opacity="0.1" d="M447.928 481.118C447.854 481.605 447.741 482.083 447.589 482.549C447.515 482.203 447.447 481.883 447.379 481.517C446.478 477.131 445.848 472.685 445.495 468.208L446.111 468.002C446.443 470.473 446.854 472.913 447.342 475.322C447.767 477.218 448.211 479.168 447.928 481.118Z" fill="black"/>
</g>
<path d="M426.051 497.388L421.949 500.669C421.949 500.669 413.277 521.71 413.912 533.508C414.01 535.385 414.059 537.268 414.029 539.151C413.961 542.971 414.977 549.133 422.485 547.503C433.183 545.187 459.586 534.779 459.586 534.779L457.8 525.53C457.8 525.53 435.326 531.692 431.434 529.03C431.434 529.03 436.607 513.419 435.893 511.495C435.178 509.572 426.051 497.388 426.051 497.388Z" fill="#DB8B8B"/>
<path d="M517.043 482.356L519.507 488.524C519.507 488.524 526.645 505.872 528.068 512.42C529.49 518.968 531.997 535.937 531.997 535.937C531.997 535.937 537.7 547.915 515.583 542.871C493.467 537.827 484.173 531.698 484.173 531.698L488.484 523.214C488.484 523.214 509.529 527.453 512.387 525.144C512.387 525.144 503.826 503.943 504.534 502.399C505.243 500.855 517.043 482.356 517.043 482.356Z" fill="#DB8B8B"/>
<path d="M454.222 528.225L457.788 524.758C457.788 524.758 464.563 490.82 470.635 495.851C476.708 500.882 468.135 529.788 468.135 529.788L459.574 534.799L454.222 528.225Z" fill="#DB8B8B"/>
<path d="M490.621 525.916L488.484 523.214C488.484 523.214 480.989 489.682 474.571 495.465C468.153 501.248 481.321 529.03 481.321 529.03L484.179 531.732L489.882 530.188L490.621 525.916Z" fill="#DB8B8B"/>
<path d="M505.249 587.975C505.249 587.975 478.451 590.996 476.154 592.759C473.857 594.523 475.285 605.316 475.285 605.316L510.601 603.007L505.249 587.975Z" fill="#DB8B8B"/>
<path opacity="0.1" d="M505.249 587.975C505.249 587.975 478.451 590.996 476.154 592.759C473.857 594.523 475.285 605.316 475.285 605.316L510.601 603.007L505.249 587.975Z" fill="black"/>
<path opacity="0.1" d="M551.096 596.645C547.203 603.46 545.928 607.246 532.003 607.246H501.325V587.203L505.249 584.887C522.019 576.795 540.57 579.49 540.57 579.49L551.096 596.645Z" fill="black"/>
<path d="M558.523 596.24C554.631 603.054 546.643 608.025 532.724 608.025H502.04V587.975L505.957 585.659C522.728 577.567 541.278 580.262 541.278 580.262L558.523 596.24Z" fill="#6193E2" fill-opacity="0.34"/>
<path d="M492.296 591.428C493.528 591.082 494.852 590.676 496.133 590.896C496.905 591.059 497.635 591.4 498.273 591.896C498.911 592.392 499.441 593.032 499.829 593.771C500.088 594.368 500.452 594.906 500.9 595.354C501.428 595.702 502.032 595.888 502.65 595.893C506.869 596.326 511.167 596.319 515.269 597.484C519.371 598.648 523.393 601.224 525.179 605.383C525.408 605.854 525.534 606.375 525.549 606.907C525.477 607.456 525.266 607.973 524.94 608.401C524.614 608.83 524.186 609.153 523.701 609.335C520.775 610.713 517.505 608.863 514.382 608.138C510.859 607.319 507.213 607.985 503.629 608.424C500.094 608.868 496.539 609.091 492.98 609.089C490.055 609.115 487.136 608.823 484.265 608.217C482.658 607.851 481.075 607.339 479.449 607.106C477.899 606.924 476.339 606.862 474.78 606.92C467.566 607.009 460.36 606.891 453.163 606.567C450.878 606.467 448.549 606.341 446.425 605.436C445.96 605.288 445.556 604.973 445.279 604.544C445.123 604.208 445.045 603.836 445.051 603.46C444.857 599.693 445.561 595.935 447.096 592.546C447.595 591.435 448.574 588.853 449.683 588.307C450.791 587.762 453.711 589.086 454.949 589.385C462.826 591.315 470.839 592.972 478.968 593.032C483.456 593.106 487.934 592.567 492.296 591.428Z" fill="#DB8B8B"/>
<path opacity="0.1" d="M452.448 586.817L447.681 606.887L418.377 606.095C414.195 604.358 424.739 599.527 418.377 593.591L410.709 574.48C410.709 574.48 420.342 576.023 426.765 578.725C433.189 581.427 437.112 581.034 437.112 581.034C437.112 581.034 451.025 584.887 452.448 586.817Z" fill="black"/>
<path d="M452.448 587.975L447.681 608.018L418.377 607.226C414.195 605.489 404.279 600.977 397.917 595.035L410.709 575.611C410.709 575.611 420.342 577.155 426.765 579.85C433.189 582.545 437.112 582.165 437.112 582.165C437.112 582.165 451.025 586.045 452.448 587.975Z" fill="#6193E2" fill-opacity="0.34"/>
<path d="M492.628 417.916C493.302 411.785 484.346 405.596 472.626 404.092C460.905 402.589 450.857 406.341 450.183 412.472C449.51 418.603 458.465 424.792 470.186 426.295C481.907 427.799 491.955 424.047 492.628 417.916Z" fill="#35323E"/>
<path d="M472.963 399.674C477.1 399.674 480.453 396.052 480.453 391.583C480.453 387.114 477.1 383.491 472.963 383.491C468.827 383.491 465.474 387.114 465.474 391.583C465.474 396.052 468.827 399.674 472.963 399.674Z" fill="#35323E"/>
<path opacity="0.1" d="M465.474 391.583C465.474 391.583 474.867 389.626 479.443 392.914C484.019 396.201 465.474 391.583 465.474 391.583Z" fill="black"/>
<path d="M498.258 417.149C498.258 417.814 497.846 418.593 496.411 417.235C492.789 413.822 484.456 404.825 473.007 404.825C461.071 404.825 451.395 414.055 447.139 417.235C445.698 418.313 444.676 417.728 444.676 417.149C444.676 414.88 456.993 396.607 473.007 396.607C489.02 396.607 498.258 414.88 498.258 417.149Z" fill="#6C63FF"/>
<path opacity="0.1" d="M497.556 414.966C497.371 415.399 496.866 415.585 495.795 414.574C492.173 411.16 483.84 402.163 472.391 402.163C460.455 402.163 450.779 411.393 446.523 414.574C446.219 414.81 445.88 414.988 445.519 415.099C445.111 415.713 444.824 416.411 444.676 417.149C444.676 417.728 445.698 418.313 447.139 417.235C451.395 414.055 461.071 404.825 473.007 404.825C484.456 404.825 492.789 413.822 496.411 417.235C497.846 418.566 498.258 417.794 498.258 417.149C498.142 416.383 497.904 415.645 497.556 414.966V414.966Z" fill="black"/>
<path d="M498.492 417.062H496.478V429.38H498.492V417.062Z" fill="#6A5C99"/>
<path d="M493.793 425.028C495.631 425.028 497.393 425.816 498.692 427.22C499.992 428.624 500.722 430.529 500.722 432.514V433C500.722 434.985 499.992 436.889 498.692 438.293C497.393 439.697 495.631 440.486 493.793 440.486V425.028Z" fill="#6C63FF"/>
<path d="M495.579 425.993C495.579 425.059 494.879 424.302 494.015 424.302C493.151 424.302 492.45 425.059 492.45 425.993V439.514C492.45 440.448 493.151 441.205 494.015 441.205C494.879 441.205 495.579 440.448 495.579 439.514V425.993Z" fill="#6A5C99"/>
<path d="M444.682 429.619H446.696V417.302H444.682V429.619Z" fill="#6A5C99"/>
<path d="M449.381 440.726C447.543 440.726 445.781 439.937 444.482 438.533C443.182 437.129 442.452 435.225 442.452 433.239V432.754C442.452 430.768 443.182 428.864 444.482 427.46C445.781 426.056 447.543 425.267 449.381 425.267V425.267V440.726Z" fill="#6C63FF"/>
<path d="M447.589 439.761C447.589 440.694 448.289 441.451 449.153 441.451C450.017 441.451 450.717 440.694 450.717 439.761V426.239C450.717 425.305 450.017 424.549 449.153 424.549C448.289 424.549 447.589 425.305 447.589 426.239V439.761Z" fill="#6A5C99"/>
<path d="M600.004 579.377C611.501 579.377 620.821 577.441 620.821 575.052C620.821 572.663 611.501 570.726 600.004 570.726C588.507 570.726 579.187 572.663 579.187 575.052C579.187 577.441 588.507 579.377 600.004 579.377Z" fill="#6C63FF"/>
<path d="M599.653 576.642C600.993 576.642 602.08 575.108 602.08 573.215C602.08 571.323 600.993 569.788 599.653 569.788C598.313 569.788 597.226 571.323 597.226 573.215C597.226 575.108 598.313 576.642 599.653 576.642Z" fill="#3F3D56"/>
<path d="M599.653 572.45C600.993 572.45 602.08 570.916 602.08 569.023C602.08 567.13 600.993 565.596 599.653 565.596C598.313 565.596 597.226 567.13 597.226 569.023C597.226 570.916 598.313 572.45 599.653 572.45Z" fill="#3F3D56"/>
<path d="M599.653 568.264C600.993 568.264 602.08 566.73 602.08 564.837C602.08 562.945 600.993 561.41 599.653 561.41C598.313 561.41 597.226 562.945 597.226 564.837C597.226 566.73 598.313 568.264 599.653 568.264Z" fill="#3F3D56"/>
<path d="M599.653 564.072C600.993 564.072 602.08 562.538 602.08 560.645C602.08 558.752 600.993 557.218 599.653 557.218C598.313 557.218 597.226 558.752 597.226 560.645C597.226 562.538 598.313 564.072 599.653 564.072Z" fill="#3F3D56"/>
<path d="M599.653 559.88C600.993 559.88 602.08 558.345 602.08 556.453C602.08 554.56 600.993 553.026 599.653 553.026C598.313 553.026 597.226 554.56 597.226 556.453C597.226 558.345 598.313 559.88 599.653 559.88Z" fill="#3F3D56"/>
<path d="M599.653 555.694C600.993 555.694 602.08 554.16 602.08 552.267C602.08 550.374 600.993 548.84 599.653 548.84C598.313 548.84 597.226 550.374 597.226 552.267C597.226 554.16 598.313 555.694 599.653 555.694Z" fill="#3F3D56"/>
<path d="M599.653 551.502C600.993 551.502 602.08 549.968 602.08 548.075C602.08 546.182 600.993 544.648 599.653 544.648C598.313 544.648 597.226 546.182 597.226 548.075C597.226 549.968 598.313 551.502 599.653 551.502Z" fill="#3F3D56"/>
<path d="M608.731 519.401C609.06 518.946 609.36 518.468 609.63 517.97L603.262 516.839L610.148 516.892C610.81 515.34 611.172 513.658 611.21 511.949C611.248 510.241 610.962 508.542 610.369 506.957L601.131 512.134L609.655 505.367C608.855 503.879 607.781 502.585 606.499 501.565C605.217 500.545 603.754 499.82 602.202 499.437C600.65 499.054 599.041 499.019 597.476 499.336C595.911 499.653 594.423 500.315 593.105 501.279C591.787 502.244 590.666 503.492 589.813 504.944C588.96 506.397 588.392 508.023 588.146 509.723C587.899 511.422 587.979 513.159 588.38 514.824C588.78 516.489 589.494 518.047 590.476 519.401C589.963 520.113 589.519 520.88 589.152 521.69L597.423 526.348L588.604 523.154C587.983 525.129 587.827 527.239 588.15 529.295C588.472 531.352 589.263 533.289 590.451 534.932C589.105 536.783 588.268 539.005 588.036 541.345C587.803 543.685 588.185 546.049 589.137 548.166C590.089 550.283 591.573 552.068 593.42 553.316C595.266 554.565 597.401 555.227 599.579 555.227C601.757 555.227 603.892 554.565 605.738 553.316C607.585 552.068 609.069 550.283 610.021 548.166C610.973 546.049 611.355 543.685 611.122 541.345C610.89 539.005 610.053 536.783 608.707 534.932C610.314 532.72 611.188 529.989 611.188 527.177C611.188 524.364 610.314 521.633 608.707 519.421L608.731 519.401Z" fill="#6C63FF"/>
<path opacity="0.1" d="M587.994 527.16C587.985 529.97 588.853 532.701 590.458 534.912C589.111 536.763 588.274 538.985 588.042 541.325C587.809 543.665 588.191 546.029 589.143 548.146C590.095 550.263 591.579 552.048 593.426 553.297C595.272 554.545 597.407 555.207 599.585 555.207C601.764 555.207 603.898 554.545 605.744 553.297C607.591 552.048 609.075 550.263 610.027 548.146C610.979 546.029 611.361 543.665 611.128 541.325C610.896 538.985 610.059 536.763 608.713 534.912C610.283 532.783 587.994 525.749 587.994 527.16Z" fill="black"/>
<circle cx="429.5" cy="308.5" r="25.5" fill="#6193E2" fill-opacity="0.24"/>
<defs>
<linearGradient id="paint0_linear" x1="504.276" y1="609.835" x2="504.276" y2="366.143" gradientUnits="userSpaceOnUse">
<stop stop-color="#808080" stop-opacity="0.25"/>
<stop offset="0.54" stop-color="#808080" stop-opacity="0.12"/>
<stop offset="1" stop-color="#808080" stop-opacity="0.1"/>
</linearGradient>
</defs>
</svg>
